<?xml version="1.0" encoding="utf-8"?>
<svg viewBox="0 0 500 500" xmlns="http://www.w3.org/2000/svg">
  <defs>
    <clipPath id="clip0_203_145">
      <rect width="469.43" height="401.582" fill="white" transform="translate(91.583 126.411)"/>
    </clipPath>
    <clipPath id="clip1_203_145">
      <rect width="301.943" height="476.224" fill="white" transform="translate(152.29 75.8833)"/>
    </clipPath>
    <clipPath id="clip2_203_145">
      <rect width="72.7429" height="99.6186" fill="white" transform="translate(457.523 148.08) rotate(-19.542)"/>
    </clipPath>
    <clipPath id="clip3_203_145">
      <rect width="96.6522" height="106.555" fill="white" transform="translate(531.088 348.49) rotate(35.637)"/>
    </clipPath>
    <clipPath id="clip4_203_145">
      <rect width="89.7048" height="116.253" fill="white" transform="translate(78.2324 274.665) rotate(-14.339)"/>
    </clipPath>
  </defs>
  <g clip-path="url(#clip0_203_145)" transform="matrix(0.725275, 0, 0, 0.725275, -15.961703, 0.22495)" style="">
    <path d="M91.8477 280.336C87.9602 213.637 127.337 153.326 179.966 133.713C213.77 121.115 257.244 125.102 288.17 143.487C334.924 171.283 317.91 211.128 361.385 236.061C404.973 261.059 438.181 230.244 489.027 254.461C543.227 280.276 556.689 339.674 558.355 347.61C571.156 408.601 536.71 473.305 476.716 505.734C391.901 551.578 280.068 519.919 247.35 471.234C229.195 444.219 239.445 417.981 210.418 396.485C183.269 376.379 157.761 387.084 133.963 368.885C118.388 356.975 96.3832 334.385 91.8477 280.336Z" fill="#3A98B9" fill-opacity="0.5"/>
  </g>
  <g clip-path="url(#clip1_203_145)" transform="matrix(0.725275, 0, 0, 0.725275, -15.961703, 0.22495)" style="">
    <path d="M364.509 190.469C364.509 190.469 358.778 201.825 340.347 204.876C321.92 207.927 330.78 196.147 330.78 196.147L333.622 190.485L336.27 185.21L352.556 173.639C352.545 173.738 352.545 173.832 352.545 173.932C352.477 180.17 364.509 190.469 364.509 190.469Z" fill="#FF9996"/>
    <path d="M352.556 173.639C352.545 173.738 352.545 173.832 352.545 173.932C351.038 180.201 347.207 188.643 337.452 190.521C335.846 190.83 334.585 190.799 333.622 190.485L336.27 185.21L352.556 173.639Z" fill="black"/>
    <path d="M299.618 306.427C299.618 306.427 234.632 368.834 232.3 372.147L232.272 372.175L232.277 372.179C228.548 377.492 226.351 383.96 226.351 390.945C226.351 409.009 240.995 423.653 259.06 423.653C268.174 423.653 276.414 419.922 282.346 413.908L282.348 413.909L367.651 333.117C376.548 262.467 299.618 306.427 299.618 306.427Z" fill="#112E5B"/>
    <path d="M324.738 194.957L318.815 306.91L355.884 306.427L362.845 187.764L340.225 199.064L324.738 194.957Z" fill="#F2F2F2"/>
    <path d="M336.266 306.871L327.354 296.138L337.926 208.563H341.353L350.044 296.662L336.266 306.871Z" fill="#F90065"/>
    <path d="M204.895 204.9L196.337 194.631C189.102 185.948 188.851 173.41 195.733 164.445L197.459 162.198C199.268 159.841 199.377 156.594 197.729 154.122L187.625 138.96L220.595 127.446L231.364 159.392C232.231 161.962 231.818 164.792 230.254 167.008L221.768 179.034C220.196 181.26 220.51 184.305 222.502 186.165L226.875 190.246C235.772 198.62 213.792 215.366 204.895 204.9ZM361.866 168.61C360.909 166.917 359.173 165.912 357.245 165.713C356.539 157.353 351.17 152.121 343.917 152.053C336.067 151.98 328.987 157.981 328.897 167.576C328.807 177.172 329.702 184.959 337.553 185.033C341.949 185.074 347.593 182.687 351.726 178.894C354.25 178.974 357.128 178.316 358.917 177.306C362.208 175.446 363.528 171.553 361.866 168.61Z" fill="#FF9996"/>
    <path d="M359.942 173.693C359.164 171.998 357.866 170.517 356.288 169.521L356.587 169.049C358.254 170.101 359.627 171.668 360.45 173.46L359.942 173.693Z" fill="black"/>
    <path d="M358.958 171.551L357.878 173.975L358.958 171.551Z" fill="white"/>
    <path d="M358.133 174.088L357.623 173.861L358.703 171.438L359.214 171.665L358.133 174.088Z" fill="black"/>
    <path d="M343.717 166.982C343.723 166.298 343.33 165.739 342.84 165.735C342.349 165.73 341.946 166.281 341.939 166.966C341.933 167.65 342.326 168.209 342.816 168.213C343.307 168.218 343.71 167.667 343.717 166.982Z" fill="black"/>
    <path d="M334.491 166.598C334.497 165.914 334.104 165.355 333.614 165.351C333.123 165.346 332.72 165.897 332.713 166.582C332.707 167.266 333.1 167.825 333.59 167.829C334.081 167.834 334.484 167.283 334.491 166.598Z" fill="black"/>
    <path d="M333.776 172.966L333.582 172.442C335.079 171.886 336.32 170.734 336.985 169.28C337.651 167.827 337.711 166.135 337.152 164.638L337.676 164.442C338.286 166.078 338.22 167.926 337.493 169.513C336.767 171.1 335.412 172.359 333.776 172.966ZM337.411 177.218L337.397 176.66C339.667 176.601 341.885 175.105 342.789 173.021L343.302 173.243C342.298 175.556 339.931 177.153 337.411 177.218Z" fill="black"/>
    <path d="M337.669 185.313C337.629 185.313 337.59 185.313 337.55 185.312L337.555 184.754C337.591 184.754 337.628 184.754 337.664 184.754C342.014 184.754 347.572 182.327 351.537 178.688L351.621 178.611L351.735 178.615C354.163 178.692 356.999 178.068 358.779 177.062C360.311 176.197 361.45 174.852 361.984 173.274C362.515 171.708 362.387 170.101 361.622 168.747C360.745 167.194 359.139 166.189 357.217 165.991L356.986 165.967L356.967 165.737C356.285 157.662 351.162 152.401 343.915 152.333L343.92 151.774C351.408 151.844 356.719 157.208 357.504 165.462C359.506 165.734 361.177 166.822 362.109 168.472C362.953 169.966 363.096 171.735 362.514 173.454C361.935 175.162 360.706 176.616 359.054 177.549C357.221 178.585 354.34 179.233 351.831 179.176C347.717 182.916 342.184 185.313 337.669 185.313Z" fill="black"/>
    <path d="M430.975 306.427L361.477 305.412L327.355 392.777C325.785 398.01 324.738 401.782 324.738 406.645C324.738 420.374 335.867 431.503 349.596 431.503C359.557 431.503 368.146 425.642 372.112 417.182L420.855 357.5C431.539 344.419 435.621 327.155 431.927 310.675L430.975 306.427Z" fill="#112E5B"/>
    <path d="M333.995 203.677L338.06 208.622H341.486L346.768 201.795L340.224 199.064L333.995 203.677Z" fill="#F90065"/>
    <path d="M333.111 188.153L340.224 199.064L332.064 213.797L325.784 193.387L333.111 188.153Z" fill="#F2F2F2"/>
    <path d="M348.184 213.797L340.225 199.064L358.755 183.967L362.846 187.764L348.184 213.797Z" fill="#F2F2F2"/>
    <path d="M361.653 187.821C357.375 206.077 340.463 284.672 355.885 325.968C355.885 325.968 357.252 336.507 371.838 326.313C386.425 316.119 420.508 305.903 433.068 312.183L394.865 188.676L372.838 187.78L366.281 185.341C364.305 184.606 362.134 185.769 361.653 187.821Z" fill="#B8C2D8"/>
    <path d="M362.518 315.368C358.125 288.102 366.35 229.755 367.004 225.213L358.171 223.927L369.1 218.931C367.767 202.865 369.409 194.525 370.029 191.377C370.084 191.097 370.131 190.859 370.167 190.661L370.716 190.76C370.68 190.96 370.633 191.201 370.577 191.485C369.959 194.624 368.316 202.965 369.673 219.08L369.69 219.276L360.127 223.647L367.638 224.741L367.597 225.018C367.505 225.636 358.534 287.126 363.07 315.279L362.518 315.368Z" fill="black"/>
    <path d="M371.315 265.083C371.315 265.083 352.475 262.467 344.625 269.793C344.625 269.793 328.401 274.846 322.121 280.783C315.841 286.721 300.843 298.007 300.843 298.007L326.831 299.623L345.148 296.483L373.517 291.714C391.725 290.203 390.155 262.467 371.315 265.083Z" fill="#FF9996"/>
    <path d="M393.092 410.527C377.072 404.335 297.591 373.553 279.731 365.563L279.714 365.587C274.082 360.994 266.894 358.237 259.06 358.237C240.995 358.237 226.351 372.881 226.351 390.945C226.351 407.088 238.049 420.49 253.429 423.16C274.843 430.483 322.541 445.097 389.108 443.54C398.357 443.54 405.855 436.042 405.855 426.793C405.855 418.918 400.417 412.315 393.092 410.527Z" fill="#112E5B"/>
    <path d="M374.418 406.611C374.408 392.882 363.27 381.761 349.541 381.771C339.853 381.778 331.469 387.33 327.373 395.421L327.309 395.393L326.881 396.453C326.614 397.045 326.367 397.648 326.147 398.264L282.42 505.804C281.06 508.422 280.293 511.368 280.295 514.486C280.303 525.324 289.564 534.104 300.981 534.096C308.699 534.09 315.421 530.067 318.968 524.114L319.029 524.139L370.542 419.95C371.48 418.475 372.272 416.898 372.886 415.235L372.887 415.232C373.878 412.546 374.42 409.642 374.418 406.611Z" fill="#112E5B"/>
    <path d="M328.262 192.589C327.175 202.939 320.239 272.875 326.704 313.909C327.275 317.533 323.672 320.393 320.265 319.033C311.236 315.427 297.039 311.062 290.198 315.847L315.841 194.957L323.168 192.863L327.15 191.668C327.744 191.49 328.327 191.973 328.262 192.589Z" fill="#B8C2D8"/>
    <path d="M318.555 312.849L312.842 231.316L318.486 229.742L313.285 225.425L324.272 198.775L324.788 198.988L313.959 225.258L319.665 229.994L313.432 231.732L319.112 312.81L318.555 312.849Z" fill="black"/>
    <path d="M289.935 306.445L284.716 306.861C280.609 307.188 276.541 305.863 273.415 303.18L269.179 299.546L285.719 299.1L290.931 302.319C292.767 303.453 292.087 306.274 289.935 306.445ZM357.793 294.357L323.147 307.173C320.783 308.047 318.199 308.131 315.783 307.411L302.758 302.24L318.351 301.439L348.029 291.781L357.793 294.357Z" fill="#FF9996"/>
    <path d="M311.392 307.492L306.173 307.908C302.066 308.235 297.998 306.91 294.871 304.227L290.636 300.592L307.175 300.147L312.388 303.366C314.224 304.5 313.543 307.32 311.392 307.492Z" fill="#FF9996"/>
    <path d="M300.402 306.445L295.182 306.861C291.075 307.188 287.008 305.863 283.881 303.18L279.646 299.545L296.185 299.1L301.398 302.319C303.234 303.453 302.553 306.274 300.402 306.445Z" fill="#FF9996"/>
    <path d="M283.511 307.188C279.77 307.188 276.082 305.837 273.233 303.392L268.448 299.286L279.631 298.984L279.646 299.543L269.911 299.805L273.597 302.968C276.645 305.584 280.689 306.902 284.694 306.583L289.913 306.167L289.958 306.724L284.738 307.14C284.329 307.172 283.92 307.188 283.511 307.188Z" fill="black"/>
    <path d="M328.995 300.156L268.061 303.984L300.059 277.104L360.994 273.276L328.995 300.156Z" fill="#B7B7B7"/>
    <path d="M319.101 308.171C317.954 308.171 316.806 308.008 315.703 307.679L302.654 302.5L302.86 301.98L315.886 307.152C318.205 307.841 320.756 307.758 323.049 306.911L345.164 298.731L345.358 299.255L323.243 307.435C321.917 307.925 320.509 308.171 319.101 308.171Z" fill="black"/>
    <path d="M304.968 308.235C301.227 308.235 297.539 306.884 294.69 304.439L290.454 300.804L290.818 300.38L295.054 304.015C298.102 306.631 302.15 307.95 306.151 307.629L311.37 307.213C312.03 307.16 312.572 306.825 312.896 306.269L313.379 306.551C312.966 307.259 312.25 307.703 311.415 307.77L306.195 308.186C305.786 308.219 305.377 308.235 304.968 308.235Z" fill="black"/>
    <path d="M293.978 307.189C290.237 307.189 286.549 305.838 283.7 303.392L279.464 299.758L279.828 299.333L284.064 302.968C287.112 305.584 291.153 306.902 295.161 306.583L298.567 306.311L298.611 306.868L295.205 307.14C294.796 307.172 294.387 307.189 293.978 307.189Z" fill="black"/>
    <path d="M327.998 298.222L273.035 301.958L292.802 285.776L347.765 282.04L327.998 298.222Z" fill="#B8C2D8"/>
    <path d="M326.293 282.621L306.035 283.55L313.096 277.641L333.353 276.713L326.293 282.621Z" fill="#B8C2D8"/>
    <path d="M316.641 277.661L316.611 277.102L326.555 276.579L326.585 277.137L316.641 277.661Z" fill="black"/>
    <path d="M328.317 298.53L327.962 298.099L345.755 283.446L346.11 283.877L328.317 298.53Z" fill="black"/>
    <path d="M329.152 300.087L267.995 303.992L241.004 262.467L241.527 261.42L301.41 257.435L329.152 300.087Z" fill="#E5E5E5"/>
    <path d="M329.971 301.717L268.255 305.858L268.041 303.972L329.152 300.069L329.971 301.717Z" fill="#4F4F4F"/>
    <path d="M329.152 300.069L360.994 273.276L361.371 275.55L329.971 301.717L329.152 300.069Z" fill="#4F4F4F"/>
    <path d="M351.82 170.759C351.6 171.059 351.113 170.881 351.149 170.511C351.312 168.805 351.005 167.08 351.951 165.65C352.705 164.508 353.64 162.184 352.474 160.94C351.593 159.999 349.659 160.362 347.764 160.416C342.13 160.579 331.646 160.706 327.354 155.183C326.04 153.492 324.724 149.509 324.72 147.367C324.716 145.225 325.231 143.12 325.741 141.039C330.123 144.336 335.297 146.572 340.7 147.506C344.191 148.108 347.842 148.196 351.067 149.661C354.292 151.125 357.025 154.556 356.205 158.002C358.653 157.356 361.47 158.636 362.592 160.906C363.692 163.131 360.847 167.22 360.847 167.22C359.376 166.239 357.465 165.613 355.614 166.696C354.045 167.614 352.927 169.242 351.82 170.759ZM402.191 500.583C402.191 500.583 410.041 502.153 412.657 497.443L432.021 421.56C432.021 417.896 431.966 416.406 427.594 415.484C427.051 415.37 426.469 415.259 425.846 415.153C425.846 415.153 414.751 475.508 402.191 500.583Z" fill="black"/>
    <path d="M351.951 266.13C351.951 266.13 337.137 271.257 329.765 273.799C323.167 276.073 329.38 279.019 334.681 280.26C340.12 281.534 354.314 274.12 354.314 274.12L351.951 266.13Z" fill="#FF9996"/>
    <path d="M226.825 503.388C226.825 503.388 230.015 493.257 260.892 503.2C268.064 505.51 281.261 507.774 281.302 507.91C286.39 524.845 305.195 525.712 314.795 522.563C317.645 521.629 318.982 524.133 318.982 524.133L313.748 545.59C281.992 540.047 252.055 527.646 226.825 503.388Z" fill="#56576B"/>
    <path d="M225.876 512.784C223.211 505.293 229.491 494.303 239.733 504.002C246.664 510.565 253.779 516.864 261.345 522.669C273.658 532.116 289.336 536.187 304.775 538.325C307.276 538.672 309.933 539.035 311.876 540.631C313.818 542.227 314.283 545.206 312.701 547.16C303.805 558.15 281.301 547.683 277.729 545.714C264.633 538.493 259.845 536.693 246.317 531.332C238.253 528.136 229.031 521.656 225.876 512.784Z" fill="black"/>
    <path d="M385.968 443.54C385.968 443.54 396.435 484.36 396.958 492.21C397.365 498.322 400.098 502.283 405.855 500.06C410.738 498.174 423.532 438.671 427.299 420.67C427.886 417.869 428.662 415.664 425.846 415.153L392.771 410.57C392.771 410.57 409.518 427.84 385.968 443.54Z" fill="#56576B"/>
    <path d="M315.841 194.956C315.841 194.956 247.808 221.123 238.599 230.44C230.183 238.957 240.628 254.047 251.783 257.861C258.359 260.109 265.291 258.912 270.669 255.232L312.178 234.73L315.841 194.956Z" fill="#B8C2D8"/>
    <path d="M194.428 199.143L222.594 183.043L229.549 191.093L203.848 210.133L194.428 199.143Z" fill="#F2F2F2"/>
    <path d="M265.812 216.832C264.796 216.484 229.55 187.764 229.55 187.764L198.615 208.563L242.229 251.186C244.649 254.172 247.896 256.532 251.784 257.861C262.939 261.675 275.123 255.582 278.997 244.252C282.87 232.922 276.968 220.646 265.812 216.832Z" fill="#B8C2D8"/>
    <path d="M265.722 217.096C265.535 217.033 264.969 216.839 243.287 199.281L243.638 198.847C262.249 213.917 265.582 216.421 265.912 216.571L265.722 217.096Z" fill="black"/>
    <path d="M379.688 219.03C380.212 219.553 368.175 195.48 385.445 190.247C402.715 185.013 408.472 190.77 415.798 202.283C423.125 213.797 451.707 260.12 451.707 260.12C451.707 260.12 462.375 279.737 439.872 286.017C419.446 291.717 411.612 270.317 411.612 270.317L379.688 219.03Z" fill="#B8C2D8"/>
    <path d="M407.145 263.672L379.451 219.178L379.925 218.882L407.62 263.376L407.145 263.672Z" fill="black"/>
    <path d="M361.371 262.99L368.698 294.39L383.351 291.25L372.488 261.044L361.371 262.99Z" fill="#F2F2F2"/>
    <path d="M368.368 261.743L374.978 294.39L437.473 286.326C439.382 286.08 441.228 285.484 442.909 284.547C447.742 281.854 456.265 275.435 452.432 265.083C447.198 250.953 438.036 250.581 430.319 251.552C422.602 252.523 368.368 261.743 368.368 261.743Z" fill="#B8C2D8"/>
    <path d="M331.991 214.506L327.333 199.369L327.867 199.204L332.139 213.087L339.898 199.075L334.544 190.863L335.012 190.558L340.55 199.052L331.991 214.506Z" fill="black"/>
    <path d="M348.178 214.375L339.979 199.197L340.47 198.931L348.188 213.218L355.641 199.986L356.128 200.26L348.178 214.375Z" fill="black"/>
    <path d="M368.414 262.019L368.369 261.754L368.099 261.823L368.038 261.538L368.32 261.468L372.439 260.769C382.301 259.099 406.754 254.971 420.843 252.713L420.932 253.265C406.844 255.522 382.393 259.65 372.534 261.32L368.414 262.019ZM254.676 221.216L254.43 220.715C277.197 209.548 315.358 194.843 315.741 194.696L315.941 195.217C315.559 195.364 277.421 210.061 254.676 221.216ZM336.126 280.686C335.575 280.686 335.068 280.637 334.617 280.532C330.997 279.684 326.734 278.013 326.636 276.094C326.585 275.094 327.579 274.257 329.674 273.535C332.383 272.601 336.097 271.318 339.71 270.069L339.893 270.597C336.278 271.846 332.565 273.129 329.856 274.063C328.079 274.676 327.159 275.368 327.194 276.065C327.267 277.497 331.048 279.122 334.745 279.988C340.024 281.228 354.044 273.946 354.185 273.872L354.444 274.368C353.909 274.647 342.271 280.686 336.126 280.686Z" fill="black"/>
    <path d="M303.523 254.375L302.977 254.259L313.348 205.361L313.895 205.477L303.523 254.375Z" fill="black"/>
    <path d="M388.097 293.097L388.026 292.543L440.048 285.83L440.12 286.384L388.097 293.097Z" fill="black"/>
    <path d="M319.504 415.119L318.983 414.917L349.86 334.847L350.381 335.049L319.504 415.119Z" fill="black"/>
    <path d="M326.989 384.925L286.169 368.701L286.376 368.182L327.196 384.405L326.989 384.925Z" fill="black"/>
    <path d="M287.138 287.183C289.088 285.475 288.873 282.039 286.657 279.509C284.441 276.979 281.064 276.313 279.114 278.021C277.164 279.729 277.379 283.164 279.595 285.694C281.811 288.224 285.188 288.891 287.138 287.183Z" fill="white"/>
    <path d="M322.149 289.571L301.216 257.648L301.683 257.341L322.617 289.265L322.149 289.571Z" fill="black"/>
    <path d="M192.235 167.85L152.606 128.394L209.117 76.1858L248.746 115.642L192.235 167.85Z" fill="#FFCC83"/>
    <path d="M192.229 168.152L152.29 128.388L209.123 75.8833L249.062 115.648L192.229 168.152ZM152.921 128.4L192.24 167.547L248.431 115.636L209.111 76.4884L152.921 128.4Z" fill="black"/>
    <path d="M236.702 106.983L218.71 89.0693C217.793 88.1567 217.772 86.2735 218.67 85.4445L219.406 84.7641C219.93 84.2802 220.626 84.3123 221.162 84.845L239.153 102.758C240.07 103.671 240.091 105.554 239.193 106.383L238.457 107.063C237.933 107.547 237.237 107.515 236.702 106.983Z" fill="black"/>
    <path d="M193.106 163.12L157.566 127.736L208.246 80.9152L243.785 116.3L193.106 163.12Z" fill="white"/>
    <path d="M193.101 163.392L157.283 127.73L208.251 80.6439L244.069 116.305L193.101 163.392ZM157.849 127.741L193.111 162.849L243.503 116.294L208.241 81.1867L157.849 127.741Z" fill="black"/>
    <path d="M202.813 128.481L201.635 121.928L188.07 128.122L186.601 118.32L175.339 122.888L174.952 121.936L187.423 116.878L188.884 126.621L202.411 120.444L203.619 127.16L222.233 121.457L224.975 126.537L224.071 127.025L221.729 122.685L202.813 128.481Z" fill="#F90065"/>
    <path d="M200.15 153.057L170.074 123.112L170.206 122.99L200.788 94.7369L201.022 94.9902L170.573 123.121L200.394 152.812L200.15 153.057Z" fill="black"/>
    <path d="M200.185 160.417L195.755 143.503C194.923 140.328 195.695 136.947 197.822 134.448C198.904 133.176 200.943 133.462 201.629 134.985C204.596 141.577 211.471 155.707 215.885 155.707L200.185 160.417Z" fill="#FF9996"/>
    <path d="M215.885 155.986C211.44 155.986 204.886 142.9 201.374 135.099C201.093 134.473 200.518 134.042 199.838 133.945C199.155 133.848 198.481 134.104 198.035 134.628C195.969 137.057 195.218 140.348 196.026 143.432L198.506 152.904L197.965 153.045L195.485 143.574C194.631 140.313 195.425 136.834 197.609 134.266C198.181 133.595 199.045 133.268 199.916 133.392C200.787 133.516 201.523 134.068 201.884 134.87C210.236 153.424 214.457 155.427 215.885 155.427V155.986Z" fill="black"/>
  </g>
  <g clip-path="url(#clip2_203_145)" transform="matrix(0.725275, 0, 0, 0.725275, -15.961703, 0.22495)" style="">
    <path d="M538.302 158.193C531.616 139.356 510.925 129.505 492.088 136.191C473.251 142.877 463.401 163.568 470.087 182.405C473.375 191.669 480.054 198.753 488.231 202.772L488.227 202.772C488.227 202.772 488.254 202.785 488.292 202.803C488.471 202.89 488.65 202.979 488.83 203.063C490.971 204.131 498.205 208.059 500.037 213.221L534.388 201.028C532.786 196.513 534.987 190.124 536.225 187.136C540.756 178.512 541.818 168.097 538.302 158.193Z" fill="#F2F2F2"/>
    <path d="M511.069 212.098C506.856 207.025 502.13 202.328 497.02 198.138C494.84 196.35 493.063 195.005 491.495 193.818C487.895 191.095 485.722 189.451 483.566 186.071C478.382 177.945 478.549 168.668 483.946 164.951C486.235 163.374 489.824 163.099 493.425 164.195C494.753 160.838 497.195 158.191 500.173 156.898C503.035 155.654 506.615 155.587 510 156.672C511.51 153.959 513.719 151.904 515.757 151.366C518.526 150.633 522.161 151.62 525.02 153.879C528.392 156.546 530.184 160.515 530.066 165.055C529.879 172.196 529.253 175.431 527.881 182.517C527.637 183.777 527.369 185.158 527.077 186.704C525.169 196.786 526.105 201.896 527.226 206.266L526.532 206.444C525.39 201.996 524.438 196.797 526.372 186.571C526.665 185.024 526.933 183.642 527.177 182.381C528.542 175.334 529.165 172.118 529.35 165.036C529.462 160.727 527.766 156.965 524.575 154.442C521.929 152.35 518.459 151.392 515.941 152.059C514.108 152.546 512.102 154.415 510.689 156.909C510.976 157.015 511.261 157.13 511.544 157.253C514.257 158.432 516.188 160.165 516.842 162.007C517.822 164.768 517.459 168.252 515.165 169.066C512.197 170.12 509.406 166.559 508.742 164.897C507.935 162.877 508.271 160.118 509.662 157.316C506.476 156.323 503.137 156.395 500.458 157.555C497.665 158.767 495.369 161.256 494.107 164.419C497.495 165.615 499.948 167.71 500.68 170.039C501.406 172.35 500.667 175.733 498.772 176.406C498.767 176.408 498.761 176.41 498.756 176.411C496.967 177.031 494.381 174.964 493.263 172.703C492.237 170.625 492.209 167.717 493.177 164.869C489.794 163.847 486.455 164.093 484.353 165.541C479.275 169.038 479.195 177.887 484.17 185.686C486.257 188.957 488.391 190.572 491.927 193.247C493.5 194.438 495.284 195.787 497.474 197.584C502.619 201.803 507.378 206.532 511.621 211.64L511.069 212.098ZM493.858 165.091C492.947 167.765 492.961 170.473 493.906 172.385C494.851 174.299 497.121 176.219 498.522 175.734L498.532 175.731C499.9 175.245 500.667 172.385 499.997 170.254C499.341 168.168 496.994 166.197 493.858 165.091ZM510.347 157.547C510.345 157.553 510.341 157.559 510.339 157.564C509.029 160.169 508.681 162.811 509.407 164.631C509.977 166.057 512.454 169.268 514.925 168.391C516.743 167.746 517.034 164.693 516.166 162.247C515.587 160.616 513.752 158.994 511.258 157.91C510.957 157.779 510.653 157.658 510.347 157.547Z" fill="#F90065"/>
    <path d="M534.484 200.996L536.281 206.059C536.321 206.171 536.362 206.287 536.398 206.4C539.536 215.818 534.571 226.057 525.172 229.393C515.769 232.731 505.459 227.913 501.958 218.624C501.914 218.514 501.873 218.398 501.833 218.286L500.036 213.223L534.484 200.996Z" fill="#FFCC83"/>
    <path d="M536.162 205.723L536.281 206.059C536.321 206.171 536.362 206.287 536.398 206.4L501.958 218.624C501.914 218.514 501.873 218.398 501.833 218.286L501.714 217.949L536.162 205.723Z" fill="#112E5B"/>
    <path d="M525.291 229.734C519.449 231.808 512.978 230.845 507.982 227.16L508.408 226.583C513.211 230.127 519.433 231.052 525.051 229.058C528.646 227.782 531.683 225.449 533.833 222.312L534.424 222.717C532.188 225.98 529.03 228.407 525.291 229.734Z" fill="black"/>
    <path d="M534.268 200.691L506.956 210.385L507.196 211.06L534.508 201.366L534.268 200.691Z" fill="black"/>
    <path d="M488.678 203.387C488.533 203.319 488.389 203.248 488.245 203.178L488.078 203.098L487.064 202.633L487.141 202.618C478.994 198.327 472.838 191.227 469.75 182.525C468.79 179.822 468.149 177.02 467.844 174.194L468.556 174.117C468.856 176.887 469.485 179.635 470.425 182.285C473.568 191.139 479.948 198.301 488.39 202.45L488.787 202.645C488.852 202.677 488.917 202.708 488.983 202.738L488.982 202.741L489.346 202.92L488.853 203.016L488.678 203.387ZM525.496 141.478C515.888 134.391 503.444 132.541 492.208 136.529L491.969 135.853C503.429 131.786 516.122 133.673 525.921 140.902L525.496 141.478Z" fill="black"/>
    <path d="M532.74 156.904C531.81 154.912 530.68 153.01 529.382 151.252L529.959 150.826C531.285 152.623 532.439 154.565 533.389 156.601L532.74 156.904ZM536.595 170.835L535.878 170.838C535.864 167.116 535.218 163.429 533.958 159.879L534.634 159.64C535.921 163.265 536.581 167.032 536.595 170.835ZM472.716 167.152L472.002 167.092C472.198 164.764 472.64 162.452 473.316 160.221L474.002 160.428C473.34 162.611 472.907 164.874 472.716 167.152ZM475.465 156.528L474.812 156.233C476.817 151.783 479.828 147.803 483.518 144.725L483.977 145.275C480.37 148.284 477.426 152.175 475.465 156.528Z" fill="white"/>
  </g>
  <g clip-path="url(#clip3_203_145)" transform="matrix(0.725275, 0, 0, 0.725275, -15.961703, 0.22495)" style="">
    <path d="M539.786 378.983L535.605 378.593C534.581 378.498 533.829 377.591 533.924 376.567L535.49 359.765C535.585 358.741 536.493 357.989 537.516 358.084L541.697 358.474C542.721 358.569 543.474 359.476 543.378 360.5L541.813 377.302C541.717 378.326 540.81 379.078 539.786 378.983Z" fill="#112E5B"/>
    <path d="M530.871 364.463C530.539 364.225 530.338 363.823 530.379 363.387C530.44 362.733 531.019 362.253 531.672 362.314L546.66 363.71C547.315 363.771 547.795 364.35 547.733 365.004C547.672 365.657 547.093 366.138 546.44 366.077L531.452 364.68C531.235 364.66 531.036 364.582 530.871 364.463Z" fill="#FFCC83"/>
    <path d="M564.333 376.222L561.113 373.914L553.728 384.216L556.947 386.524L564.333 376.222Z" fill="#B8C2D8"/>
    <path d="M569.452 375.993L559.687 368.992C559.005 368.504 558.057 368.66 557.568 369.342L556.106 371.381C555.618 372.062 555.774 373.011 556.456 373.499L566.221 380.5C566.903 380.989 567.851 380.833 568.34 380.151L569.802 378.112C570.29 377.43 570.134 376.482 569.452 375.993Z" fill="#112E5B"/>
    <path d="M509.434 461.637C530.236 476.551 559.19 471.777 574.103 450.974C589.016 430.172 584.242 401.218 563.44 386.305C542.637 371.391 513.684 376.165 498.77 396.968C483.857 417.77 488.631 446.724 509.434 461.637Z" fill="#F2F2F2"/>
    <path d="M508.279 463.247C486.622 447.721 481.635 417.471 497.161 395.814C512.687 374.157 542.937 369.169 564.594 384.695C586.25 400.221 591.238 430.471 575.712 452.128C560.186 473.785 529.936 478.773 508.279 463.247ZM562.286 387.915C542.404 373.662 514.633 378.241 500.38 398.122C486.127 418.004 490.706 445.775 510.587 460.028C530.469 474.281 558.24 469.702 572.493 449.82C586.746 429.939 582.167 402.168 562.286 387.915Z" fill="#B8C2D8"/>
    <path d="M534.188 430.47L533.83 429.763L565.861 413.56L566.218 414.266L534.188 430.47Z" fill="#FFCC83"/>
    <path d="M540.322 424.081C541.178 427.432 539.156 430.842 535.805 431.698C532.455 432.554 529.044 430.532 528.188 427.181C527.332 423.831 525.55 398.643 527.249 398.209C528.948 397.775 539.466 420.73 540.322 424.081Z" fill="#F90065"/>
    <path d="M523.774 385.834L523.563 385.07C533.01 382.462 543.189 383.111 552.228 386.898C561.266 390.686 568.868 397.487 573.633 406.051L572.941 406.436C568.262 398.027 560.797 391.348 551.922 387.629C543.046 383.91 533.05 383.273 523.774 385.834Z" fill="#112E5B"/>
    <path d="M526.088 390.107L525.887 389.34C533.877 387.248 542.52 387.73 550.226 390.699C557.932 393.668 564.665 399.11 569.184 406.022L568.521 406.456C564.092 399.681 557.493 394.348 549.941 391.438C542.389 388.529 533.918 388.056 526.088 390.107Z" fill="#112E5B"/>
    <path d="M527.957 393.106L527.857 392.32C541.432 390.596 555.46 396.59 563.599 407.592L562.962 408.063C554.993 397.291 541.251 391.418 527.957 393.106Z" fill="#112E5B"/>
    <path d="M495.36 450.176C490.619 442.725 487.987 434.096 487.749 425.221L488.541 425.2C488.775 433.931 491.365 442.421 496.029 449.751L495.36 450.176ZM510.357 460.35L510.818 459.706C530.522 473.832 558.045 469.294 572.171 449.589L572.815 450.051C558.434 470.11 530.416 474.73 510.357 460.35ZM584.102 419.156C582.71 405.456 575.515 393.013 564.363 385.017L564.824 384.374C576.161 392.501 583.475 405.15 584.891 419.076L584.102 419.156Z" fill="black"/>
  </g>
  <g clip-path="url(#clip4_203_145)" transform="matrix(0.725275, 0, 0, 0.725275, -15.961703, 0.22495)" style="">
    <path d="M167.817 299.648C169.814 307.458 169.366 315.321 166.951 322.432C166.835 322.778 166.716 323.115 166.59 323.455C163.166 332.727 156.365 340.61 147.296 345.258C146.858 345.481 146.418 345.696 145.966 345.896C143.734 346.945 141.374 347.796 138.899 348.428C135.519 349.292 132.124 349.699 128.791 349.681C128.518 349.682 128.246 349.684 127.971 349.677C123.934 349.574 119.98 348.861 116.235 347.6L116.227 347.602C115.844 347.469 115.45 347.331 115.072 347.189L115.064 347.191C103.14 342.772 93.5056 332.759 90.1189 319.51C90.0492 319.237 89.9796 318.965 89.926 318.689C89.8298 318.312 89.7475 317.924 89.6673 317.543C86.9004 303.948 91.4088 290.405 100.668 281.16C100.886 280.942 101.105 280.732 101.325 280.523L101.333 280.521C106.135 275.939 112.149 272.491 119.037 270.73C121.913 269.995 124.797 269.59 127.647 269.493C128.173 269.478 128.69 269.466 129.203 269.471L129.211 269.469C130.152 269.476 131.074 269.513 132.005 269.582L132.826 269.654C134.864 269.85 136.875 270.206 138.837 270.703L140.835 271.276C140.835 271.276 140.853 271.28 140.855 271.288C147.536 273.352 153.574 277.142 158.351 282.279L158.958 282.951C163.077 287.582 166.177 293.232 167.817 299.648Z" fill="#FFCC83"/>
    <path d="M154.507 367.905L153.706 368.109L149.893 353.195L150.197 353.048C170.709 343.059 181.49 319.739 175.831 297.599C170.838 278.066 154.084 263.59 134.07 261.467L132.706 269.65L128.261 358.095C129.536 358.077 133.482 357.952 137.938 357.106L138.32 357.034L141.921 371.122L141.12 371.327L137.711 357.99C132.384 358.959 127.868 358.925 127.822 358.924L127.391 358.92L127.413 358.49L131.887 269.538L133.381 260.567L133.766 260.605C154.294 262.616 171.521 277.4 176.632 297.394C182.36 319.804 171.529 343.401 150.861 353.642L154.507 367.905Z" fill="#FFCC83"/>
    <path d="M129.203 269.471C122.524 273.721 117.228 278.676 113.358 284.299C113.177 284.559 113.004 284.816 112.832 285.082C109.874 289.567 107.817 294.471 106.66 299.759C104.67 308.835 105.619 318.022 107.659 326.102C107.733 326.425 107.821 326.735 107.909 327.046C110.229 335.788 113.795 343.163 116.227 347.602C115.843 347.469 115.449 347.331 115.072 347.189L115.064 347.191C112.581 342.551 109.183 335.27 106.971 326.748C106.891 326.435 106.811 326.123 106.739 325.808C104.743 317.734 103.871 308.613 105.847 299.583C107.004 294.295 109.051 289.385 111.971 284.884C112.142 284.618 112.315 284.361 112.488 284.103C116.219 278.601 121.285 273.713 127.647 269.493C128.172 269.478 128.69 269.465 129.203 269.471ZM157.897 299.931C159.415 309.109 158.054 318.238 155.627 326.24C155.537 326.553 155.438 326.869 155.338 327.176C153.026 334.491 149.859 340.797 147.296 345.258C146.858 345.48 146.418 345.695 145.966 345.896C148.542 341.551 151.924 335.055 154.386 327.428C154.487 327.12 154.588 326.813 154.686 326.498C157.177 318.479 158.61 309.298 157.077 300.064C156.184 294.668 154.347 289.617 151.573 284.941C151.425 284.697 151.276 284.446 151.118 284.196C148.074 279.265 143.97 274.759 138.837 270.703L140.835 271.276C140.835 271.276 140.853 271.28 140.855 271.288C145.452 275.148 149.164 279.387 151.973 284.003L151.981 284.001C152.129 284.245 152.279 284.496 152.42 284.75C155.172 289.44 156.998 294.512 157.897 299.931ZM132.825 269.654L131.985 286.364L131.946 287.211L129.802 329.667L129.758 330.497L128.791 349.681C128.518 349.682 128.245 349.684 127.971 349.677L128.942 330.476L128.978 329.647L131.118 287.209L131.157 286.363L131.165 286.361L132.005 269.582L132.825 269.654Z" fill="#F2F2F2"/>
    <path d="M158.351 282.279C156.193 282.95 154.068 283.518 151.981 284.001L151.973 284.003C151.685 284.076 151.402 284.14 151.118 284.196C144.26 285.744 137.845 286.351 131.985 286.364C131.713 286.366 131.44 286.367 131.165 286.36L131.157 286.363C124.401 286.306 118.415 285.455 113.358 284.299C113.061 284.238 112.769 284.168 112.488 284.103C107.907 283.004 104.138 281.681 101.332 280.52L101.324 280.522C101.105 280.732 100.885 280.942 100.668 281.16C103.492 282.358 107.309 283.737 111.971 284.884C112.252 284.948 112.543 285.019 112.832 285.082C113.142 285.156 113.459 285.229 113.776 285.301C118.452 286.333 124.313 287.165 131.118 287.209C131.392 287.216 131.665 287.214 131.946 287.211C137.863 287.191 144.453 286.565 151.573 284.941C151.858 284.886 152.14 284.822 152.42 284.75C152.951 284.623 153.49 284.494 154.034 284.355C155.652 283.941 157.292 283.479 158.958 282.951L158.351 282.279ZM166.951 322.432C166.834 322.778 166.716 323.115 166.589 323.455C162.717 324.965 158.962 326.198 155.338 327.176C155.019 327.266 154.701 327.356 154.386 327.428C154.228 327.476 154.068 327.517 153.908 327.558C145.073 329.817 136.994 330.628 129.758 330.497C129.483 330.491 129.209 330.484 128.942 330.476C120.805 330.26 113.758 328.861 107.909 327.045C107.593 326.947 107.278 326.848 106.971 326.748C105.966 326.424 104.992 326.084 104.058 325.734C98.3919 323.633 93.66 321.079 89.9257 318.688C89.8294 318.312 89.7472 317.923 89.667 317.543C93.462 320.037 98.3972 322.752 104.385 324.977C105.14 325.261 105.928 325.538 106.739 325.808C107.036 325.903 107.344 326.004 107.659 326.102C113.538 327.97 120.687 329.428 128.978 329.647C129.254 329.662 129.529 329.668 129.802 329.667C137.226 329.8 145.555 328.934 154.686 326.498C154.999 326.418 155.309 326.33 155.627 326.24C159.28 325.238 163.055 323.983 166.951 322.432Z" fill="#F2F2F2"/>
    <path d="M132.426 366.296L159.568 359.358C162.025 358.73 164.53 360.215 165.158 362.672L166.067 366.23L130.022 375.444L129.112 371.886C128.484 369.429 129.969 366.924 132.426 366.296Z" fill="#112E5B"/>
    <path d="M176.48 363.568L119.608 378.106L120.836 382.912L177.709 368.374L176.48 363.568Z" fill="#F90065"/>
    <path d="M168.221 299.544L167.42 299.749C164.621 288.8 157.256 279.536 147.214 274.334L147.594 273.599C157.845 278.91 165.364 288.367 168.221 299.544ZM135.922 349.491C125.899 351.247 115.649 349.173 107.058 343.651C98.4222 338.1 92.2654 329.562 89.7215 319.611L90.5228 319.406C93.0147 329.154 99.0459 337.518 107.505 342.956C115.92 348.365 125.961 350.397 135.779 348.676L135.922 349.491Z" fill="black"/>
    <path d="M156.882 373.698L121.637 382.707L121.842 383.508L157.087 374.499L156.882 373.698Z" fill="black"/>
  </g>
</svg>