<svg width="21" height="21" viewBox="0 0 21 21" fill="none" xmlns="http://www.w3.org/2000/svg">
<g id="material-symbols:arrow-forward-rounded">
<path id="Vector" d="M9.91668 16.5833C9.7639 16.4306 9.6839 16.2361 9.67668 16C9.66946 15.7639 9.74251 15.5694 9.89585 15.4167L13.9792 11.3333H4.66668C4.43057 11.3333 4.23251 11.2533 4.07251 11.0933C3.91251 10.9333 3.83279 10.7356 3.83335 10.5C3.83335 10.2639 3.91335 10.0658 4.07335 9.90583C4.23335 9.74583 4.43112 9.66611 4.66668 9.66667H13.9792L9.89585 5.58333C9.74307 5.43056 9.67001 5.23611 9.67668 5C9.68335 4.76389 9.76335 4.56944 9.91668 4.41667C10.0695 4.26389 10.2639 4.1875 10.5 4.1875C10.7361 4.1875 10.9306 4.26389 11.0833 4.41667L16.5833 9.91667C16.6667 9.98611 16.7258 10.0731 16.7608 10.1775C16.7958 10.2819 16.8131 10.3894 16.8125 10.5C16.8125 10.6111 16.7953 10.7153 16.7608 10.8125C16.7264 10.9097 16.6672 11 16.5833 11.0833L11.0833 16.5833C10.9306 16.7361 10.7361 16.8125 10.5 16.8125C10.2639 16.8125 10.0695 16.7361 9.91668 16.5833Z" fill="white"/>
</g>
</svg>
