<svg width="25" height="21" viewBox="0 0 25 21" fill="none" xmlns="http://www.w3.org/2000/svg">
<g id="Vector">
<path d="M6.94444 0H4.16667C1.86907 0 0 2.0186 0 4.5V7.5C0 9.9814 1.86907 12 4.16667 12H6.94444C7.39037 12 7.81204 11.9041 8.21519 11.7632C7.65519 15.2961 4.81861 18 1.38889 18C0.621204 18 0 18.6709 0 19.5C0 20.3291 0.621204 21 1.38889 21C6.74917 21 11.1111 16.2891 11.1111 10.5V4.5C11.1111 2.0186 9.24204 0 6.94444 0ZM20.8333 0H18.0556C15.758 0 13.8889 2.0186 13.8889 4.5V7.5C13.8889 9.9814 15.758 12 18.0556 12H20.8333C21.2793 12 21.7009 11.9041 22.1041 11.7632C21.5441 15.2961 18.7075 18 15.2778 18C14.5101 18 13.8889 18.6709 13.8889 19.5C13.8889 20.3291 14.5101 21 15.2778 21C20.6381 21 25 16.2891 25 10.5V4.5C25 2.0186 23.1309 0 20.8333 0Z" fill="#3A98B9"/>
<path d="M8.70902 11.8415L8.84 11.0152L8.05022 11.2912C7.68224 11.4198 7.31797 11.5 6.94444 11.5H4.16667C2.18076 11.5 0.5 9.74219 0.5 7.5V4.5C0.5 2.25781 2.18076 0.5 4.16667 0.5H6.94444C8.93036 0.5 10.6111 2.25781 10.6111 4.5V10.5C10.6111 16.0499 6.43749 20.5 1.38889 20.5C0.932885 20.5 0.5 20.0899 0.5 19.5C0.5 18.9101 0.932885 18.5 1.38889 18.5C5.09861 18.5 8.11611 15.582 8.70902 11.8415ZM22.5979 11.8415L22.7289 11.0152L21.9391 11.2912C21.5711 11.4198 21.2069 11.5 20.8333 11.5H18.0556C16.0696 11.5 14.3889 9.74219 14.3889 7.5V4.5C14.3889 2.25781 16.0696 0.5 18.0556 0.5H20.8333C22.8192 0.5 24.5 2.25781 24.5 4.5V10.5C24.5 16.0499 20.3264 20.5 15.2778 20.5C14.8218 20.5 14.3889 20.0899 14.3889 19.5C14.3889 18.9101 14.8218 18.5 15.2778 18.5C18.9875 18.5 22.005 15.582 22.5979 11.8415Z" stroke="black" stroke-opacity="0.1"/>
</g>
</svg>
