<svg width="24" height="25" viewBox="0 0 24 25" fill="none" xmlns="http://www.w3.org/2000/svg">
<path fill-rule="evenodd" clip-rule="evenodd" d="M16.091 10.657L11.341 15.403C11.2 15.544 11.01 15.623 10.811 15.623C10.612 15.623 10.421 15.544 10.28 15.403L7.909 13.03C7.616 12.737 7.616 12.262 7.909 11.969C8.203 11.676 8.678 11.678 8.97 11.969L10.811 13.812L15.03 9.596C15.323 9.303 15.798 9.304 16.091 9.596C16.384 9.889 16.384 10.364 16.091 10.657ZM12 2.75C4.802 2.75 2.25 5.302 2.25 12.5C2.25 19.698 4.802 22.25 12 22.25C19.198 22.25 21.75 19.698 21.75 12.5C21.75 5.302 19.198 2.75 12 2.75Z" fill="#1A906B"/>
</svg>
