<svg width="25" height="25" viewBox="0 0 25 25" fill="none" xmlns="http://www.w3.org/2000/svg">
<path fill-rule="evenodd" clip-rule="evenodd" d="M20.1677 5.44736L19.7397 4.83136L18.5077 5.68736L18.9357 6.30236C21.5527 10.0714 21.5527 14.9364 18.9357 18.6974L18.5077 19.3124L19.7387 20.1694L20.1677 19.5534C23.0997 15.3394 23.0997 9.67036 20.1677 5.44736Z" fill="white"/>
<path fill-rule="evenodd" clip-rule="evenodd" d="M17.4812 8.12266L17.1082 7.47166L15.8072 8.21666L16.1792 8.86766C17.4642 11.1127 17.4642 13.8967 16.1802 16.1337L15.8062 16.7837L17.1072 17.5307L17.4812 16.8807C19.0292 14.1837 19.0292 10.8277 17.4812 8.12266Z" fill="white"/>
<path fill-rule="evenodd" clip-rule="evenodd" d="M7.3288 8.06406H2.6348V8.56406C2.6328 11.1881 2.6328 13.8121 2.6348 16.4371V16.9361H7.3288L11.4548 20.5131H12.9178V4.48706H11.4548L7.3288 8.06406Z" fill="white"/>
</svg>
